<?xml version="1.0" standalone="no"?><!DOCTYPE svg PUBLIC "-//W3C//DTD SVG 1.1//EN" "http://www.w3.org/Graphics/SVG/1.1/DTD/svg11.dtd"><svg t="1577499843929" class="icon" viewBox="0 0 1025 1024" version="1.1" xmlns="http://www.w3.org/2000/svg" p-id="11883" xmlns:xlink="http://www.w3.org/1999/xlink" width="32.03125" height="32"><defs><style type="text/css"></style></defs><path d="M194.048 538.112h378.88c15.864 0 29.176-13.312 29.176-29.176 0-15.872-13.312-29.184-29.176-29.184h-378.88c-15.872 0-29.184 13.312-29.184 29.184 0 15.864 13.824 29.176 29.184 29.176m0 228.864H345.6c15.872 0 29.184-13.312 29.184-29.176 0-15.872-13.312-29.184-29.184-29.184H194.048c-15.872 0-29.184 13.312-29.184 29.184 0 15.864 13.824 29.176 29.184 29.176m148.48-457.728H573.44c15.872 0 29.184-13.312 29.184-29.184 0-15.872-13.312-29.184-29.184-29.184H194.048c-15.872 0-29.184 13.312-29.184 29.184 0 15.872 13.312 29.184 29.184 29.184h148.48z" p-id="11884" fill="#ffffff"></path><path d="M871.936 96.256c-16.896-28.672-43.008-48.64-73.736-60.416-20.48-7.68-41.984-8.192-63.488-8.192H160.768c-18.944 0-36.864 0-55.808 4.608C44.032 47.616 0.512 105.984 0.512 168.96v681.984c0 40.96 15.36 80.896 45.568 108.536 24.576 22.528 56.32 35.328 89.6 36.864 6.656 0.504 13.312 0 19.456 0h252.928c15.872 0 29.184-13.312 29.184-29.176 0-15.872-13.312-29.184-29.184-29.184H140.8c-3.072 0-6.144 0-8.704-0.512h-2.048c2.048 0.512 4.096 0.512-3.072-0.504 1.024 0 2.048 0 3.072 0.504h-1.536a87.76 87.76 0 0 1-11.264-2.552c-3.072-1.024-5.632-2.056-8.704-3.072h0.512c5.632 2.552-6.656-2.56-1.024-0.512h0.512c-1.024-0.512-2.56-1.024-3.584-2.048-3.072-1.536-5.632-3.08-8.192-4.608-1.536-1.024-6.144-4.608-7.168-5.128 1.024 0.512 2.048 1.536 2.56 2.056-2.56-2.056-3.072-2.56-2.56-2.056-4.096-3.576-7.68-7.168-11.264-10.752-1.024-1.016-2.048-2.048-2.56-3.072 0 0 0 0.504 0.512 0.504 3.584 4.608-4.608-5.624-0.512-1.016 0 0 0 0.504 0.512 0.504-2.048-3.072-4.096-5.632-5.632-8.704-1.536-2.552-3.072-5.632-4.608-8.704 0-0.504-0.512-0.504-0.512-1.024 0.512 0.512 0.512 1.528 1.024 2.048-3.072-7.168-2.048-4.608-1.024-2.048-0.512-0.512-0.512-1.528-1.024-2.048a98 98 0 0 1-4.608-16.392c0 0.512 0-0.504-0.512-4.096 0 1.536 0.512 2.56 0.512 4.096 0-0.504-0.512-6.144-1.024-8.184V162.304c0-1.536 0-3.072 0.512-4.096v0.512c-1.024 6.144 0.512-7.68 0-1.024v0.512c1.024-6.656 3.072-13.824 5.12-19.968 0-0.512 0-0.512 0.512-1.024-0.512 0.512-0.512 1.536-1.024 2.048 3.072-7.168 1.536-4.096 1.024-2.048 0.512-1.024 0.512-1.536 1.024-2.56 1.536-3.072 3.072-5.632 4.608-8.192 1.536-2.56 3.072-5.12 5.12-7.68 0 0 0 0.512-0.512 0.512-3.584 4.608 4.096-5.632 0.512-1.024 0 0 0 0.512-0.512 0.512 1.024-1.536 2.56-3.072 3.584-4.096 2.048-2.56 4.608-4.608 6.656-6.656 1.024-1.024 4.096-3.584 5.12-4.608a11.168 11.168 0 0 0-2.56 2.048c3.584-2.56 3.584-2.56 2.56-2.048 4.608-3.584 9.728-6.144 14.848-8.704 0.512-0.512 1.536-0.512 2.048-1.024-0.512 0-0.512 0.512-1.024 0.512-1.536 0.512-1.024 0.512 0 0 0.512-0.512 1.536-1.024 3.584-1.536-1.024 0.512-1.536 0.512-2.56 1.024 0.512 0 1.024-0.512 1.536-0.512l9.216-3.072c3.072-1.024 6.144-1.536 9.728-2.048h1.024c-0.512 0-1.536 0-2.56 0.512 7.68-1.024 4.608-0.512 2.56-0.512 1.536 0 3.072 0 4.096-0.512h619.52c3.072 0 6.144 0.512 9.216 0.512h-0.512c-6.144-1.024 7.168 0.512 1.024 0h-0.504c2.048 0.512 4.096 0.512 6.144 1.024 3.072 0.512 6.144 1.536 9.216 2.56 1.528 0.512 5.12 2.048 6.656 2.56l-3.08-1.536c4.096 1.536 4.096 2.048 3.08 1.536 5.12 2.56 10.232 5.632 14.84 8.704 0.512 0.512 1.024 1.024 1.536 1.024-0.512-0.512-1.024-0.512-1.024-1.024-0.512-0.512-0.512-0.512 0 0 0.504 0.512 1.528 1.024 3.576 2.56-0.504-0.512-1.528-1.024-2.048-1.536 0.512 0.512 1.032 0.512 1.032 1.024 2.552 2.048 4.6 4.096 7.168 6.656 2.552 2.56 4.6 4.608 6.656 7.168 0 0 0.504 0.512 0.504 1.024-0.504-0.512-1.016-1.024-1.016-1.536 4.6 6.144 2.552 3.584 1.016 1.536 1.032 1.024 1.536 2.56 2.56 3.584 3.08 4.096 5.128 8.704 7.68 13.312 0 0 0.504 0.512 1.536 3.584-0.512-1.024-1.032-2.56-1.536-3.584 0 0.512 2.048 5.632 2.56 7.168 1.024 3.584 2.048 7.168 3.072 11.264 0.512 1.536 0.512 3.072 1.024 4.608v-0.512c-0.504-6.144 1.024 7.168 0 1.024v-0.512c0.504 3.072 0.504 6.144 0.504 9.216v198.144c0 15.872 13.312 29.184 29.184 29.184s29.184-13.312 29.184-29.184V172.032c0.016-28.16-6.64-53.76-19.952-75.776" p-id="11885" fill="#ffffff"></path><path d="M970.232 802.816h-59.392L794.624 646.144c47.608-16.376 82.432-59.904 82.432-111.104 0-65.536-55.288-118.272-122.88-118.272-67.576 0-122.872 53.248-122.872 118.272 0 51.712 34.304 95.232 82.432 111.104l-116.224 156.672h-59.392c-29.696 0-54.272 23.552-54.272 52.224v83.968c0 28.672 24.576 52.224 54.272 52.224h432.128c29.704 0 54.28-23.552 54.28-52.224V855.04c-0.016-29.184-24.072-52.224-54.296-52.224M677.888 534.528c0-40.456 34.296-73.728 76.28-73.728s76.296 32.768 76.296 73.728c0 40.448-33.8 73.208-75.784 73.728h-1.528c-41.472-0.512-75.264-33.28-75.264-73.728m69.12 143.36l13.824-1.032 92.672 125.448H654.336l92.672-124.416m230.912 261.12c0 4.104-3.584 7.68-7.688 7.68H538.112a7.864 7.864 0 0 1-7.672-7.68V855.04c0-4.096 3.576-7.68 7.672-7.68h432.128c4.104 0 7.688 3.584 7.688 7.68v83.968" p-id="11886" fill="#ffffff"></path></svg>