<?xml version="1.0" standalone="no"?><!DOCTYPE svg PUBLIC "-//W3C//DTD SVG 1.1//EN" "http://www.w3.org/Graphics/SVG/1.1/DTD/svg11.dtd"><svg t="1565851995091" class="icon" viewBox="0 0 1024 1024" version="1.1" xmlns="http://www.w3.org/2000/svg" p-id="5297" width="32" height="32" xmlns:xlink="http://www.w3.org/1999/xlink"><defs><style type="text/css"></style></defs><path d="M199.358236 873.84344h198.861477v-161.672326c-23.054112-5.509504-39.763264-19.825182-39.763263-37.098832 0-17.251069 16.709151-31.566748 39.763263-37.076251v-161.672326H199.358236V873.84344z m477.339801-309.232194a256.237089 256.237089 0 0 1 39.763264-15.670474v-132.273253h113.915766L418.135215 123.918677 5.870783 416.667519h113.893186V873.84344h39.808424V436.560441h517.125644v128.050805zM962.6729 765.459757a177.975039 177.975039 0 0 0-27.750739-60.130363l31.092569-51.911268-27.50236-27.592679-53.717662 32.289305a173.97839 173.97839 0 0 0-56.540155-22.421874l-15.534994-62.004499H773.814333l-15.534995 62.004499a170.343021 170.343021 0 0 0-56.088555 22.670253l-54.191841-32.537684-27.50236 27.592679 31.250629 52.137067a175.942845 175.942845 0 0 0-27.976538 59.949724l-55.365998 13.8415v38.995546l51.414509 12.870562a175.581566 175.581566 0 0 0 26.124984 70.607453L620.496582 944.292834l27.50236 27.570099 40.530981-24.341169c21.586417 16.189813 46.672723 27.931378 74.333142 32.786064l10.951268 43.714752h38.905226l10.951268-43.759912a175.310606 175.310606 0 0 0 74.197663-32.786064l40.621301 24.408909 27.502359-27.5701-25.628225-42.811554c13.322161-20.931599 22.896053-44.52763 26.350783-70.268754l51.369349-12.870563v-38.995545l-55.411157-13.90924z m-169.372084 139.656891a97.432415 97.432415 0 0 1-97.342095-97.477574c0-53.830562 43.579272-97.454994 97.342095-97.454995s97.364675 43.647012 97.364675 97.454995a97.454994 97.454994 0 0 1-97.364675 97.477574z m-156.411202-316.209393v-112.58355h-198.884057v161.672326c23.054112 5.509504 39.740684 19.825182 39.740683 37.076251 0 17.251069-16.686571 31.589327-39.740683 37.098832v161.672326h104.838633c-7.135259-23.93473-12.193164-48.772657-12.193165-75.03312 0-86.165028 42.134157-162.011025 106.238589-209.903065z" fill="#ffffff" p-id="5298"></path></svg>