<?xml version="1.0" standalone="no"?><!DOCTYPE svg PUBLIC "-//W3C//DTD SVG 1.1//EN" "http://www.w3.org/Graphics/SVG/1.1/DTD/svg11.dtd"><svg t="1561886274643" class="icon" viewBox="0 0 1024 1024" version="1.1" xmlns="http://www.w3.org/2000/svg" p-id="8762" xmlns:xlink="http://www.w3.org/1999/xlink" width="200" height="200"><defs><style type="text/css"></style></defs><path d="M898.2 888H127.8c-16.5 0-29.8-13.3-29.8-29.8v-4.6c0-16.5 13.3-29.8 29.8-29.8h770.4c16.5 0 29.8 13.3 29.8 29.8v4.6c0 16.5-13.4 29.8-29.8 29.8z" p-id="8763"></path><path d="M852.8 825.5H576.1V246c0-18.5 17.9-31.8 35.6-26.5L833 285.9c11.7 3.5 19.7 14.3 19.7 26.5v513.1zM742.1 706.8h-55.3c-7.6 0-13.8 6.2-13.8 13.8V776c0 7.6 6.2 13.8 13.8 13.8h55.3c7.6 0 13.8-6.2 13.8-13.8v-55.3c0-7.7-6.2-13.9-13.8-13.9z m0-121h-55.3c-7.6 0-13.8 6.2-13.8 13.8v55.3c0 7.6 6.2 13.8 13.8 13.8h55.3c7.6 0 13.8-6.2 13.8-13.8v-55.3c0-7.7-6.2-13.8-13.8-13.8z m0-121.1h-55.3c-7.6 0-13.8 6.2-13.8 13.8v55.3c0 7.6 6.2 13.8 13.8 13.8h55.3c7.6 0 13.8-6.2 13.8-13.8v-55.3c0-7.6-6.2-13.8-13.8-13.8z m0-121h-55.3c-7.6 0-13.8 6.2-13.8 13.8v55.3c0 7.6 6.2 13.8 13.8 13.8h55.3c7.6 0 13.8-6.2 13.8-13.8v-55.3c0-7.6-6.2-13.8-13.8-13.8zM497.9 136.8l-304.3 93.6c-11.6 3.6-19.5 14.3-19.5 26.4v568.6h359.7V163.3c-0.1-18.7-18.1-32-35.9-26.5zM337.1 776c0 7.6-6.2 13.8-13.8 13.8H268c-7.6 0-13.8-6.2-13.8-13.8v-55.3c0-7.6 6.2-13.8 13.8-13.8h55.3c7.6 0 13.8 6.2 13.8 13.8V776z m0-121.1c0 7.6-6.2 13.8-13.8 13.8H268c-7.6 0-13.8-6.2-13.8-13.8v-55.3c0-7.6 6.2-13.8 13.8-13.8h55.3c7.6 0 13.8 6.2 13.8 13.8v55.3z m0-121c0 7.6-6.2 13.8-13.8 13.8H268c-7.6 0-13.8-6.2-13.8-13.8v-55.3c0-7.6 6.2-13.8 13.8-13.8h55.3c7.6 0 13.8 6.2 13.8 13.8v55.3z m0-121.1c0 7.6-6.2 13.8-13.8 13.8H268c-7.6 0-13.8-6.2-13.8-13.8v-55.3c0-7.6 6.2-13.8 13.8-13.8h55.3c7.6 0 13.8 6.2 13.8 13.8v55.3zM454.6 776c0 7.6-6.2 13.8-13.8 13.8h-55.3c-7.6 0-13.8-6.2-13.8-13.8v-55.3c0-7.6 6.2-13.8 13.8-13.8h55.3c7.6 0 13.8 6.2 13.8 13.8V776z m0-121.1c0 7.6-6.2 13.8-13.8 13.8h-55.3c-7.6 0-13.8-6.2-13.8-13.8v-55.3c0-7.6 6.2-13.8 13.8-13.8h55.3c7.6 0 13.8 6.2 13.8 13.8v55.3z m0-121c0 7.6-6.2 13.8-13.8 13.8h-55.3c-7.6 0-13.8-6.2-13.8-13.8v-55.3c0-7.6 6.2-13.8 13.8-13.8h55.3c7.6 0 13.8 6.2 13.8 13.8v55.3z m0-121.1c0 7.6-6.2 13.8-13.8 13.8h-55.3c-7.6 0-13.8-6.2-13.8-13.8v-55.3c0-7.6 6.2-13.8 13.8-13.8h55.3c7.6 0 13.8 6.2 13.8 13.8v55.3z m-94.2-117l52.7-91.3 52.7 91.3H360.4z" p-id="8764"></path></svg>