<?xml version="1.0" standalone="no"?><!DOCTYPE svg PUBLIC "-//W3C//DTD SVG 1.1//EN" "http://www.w3.org/Graphics/SVG/1.1/DTD/svg11.dtd"><svg t="1565851624500" class="icon" viewBox="0 0 1024 1024" version="1.1" xmlns="http://www.w3.org/2000/svg" p-id="3118" xmlns:xlink="http://www.w3.org/1999/xlink" width="32" height="32"><defs><style type="text/css"></style></defs><path d="M828.4 216.8L412.8 711.6v256.8c0 13.2-10.4 23.6-23.6 23.6-13.2 0-23.6-10.4-23.6-23.6v-265.6c0-5.6 2-10.8 5.6-15.2L768 214.8 124 553.6l160.8 77.2c11.6 5.6 16.8 19.6 11.2 31.6-5.6 12-19.6 16.8-31.6 11.2L61.2 576c-8-4-13.2-12-13.6-20.8 0-8.8 4.8-17.2 12.8-21.2l792-416c8-4.4 18-3.6 25.6 2 2 1.6 3.6 3.2 4.8 4.8 1.2 1.6 2 3.2 2.8 4.8 1.6 4 2 8 1.6 12.4l-108 749.6c-1.2 7.6-5.6 14-12.4 17.6-3.6 2-7.2 2.8-11.2 2.8-3.6 0-7.2-0.8-10.4-2.4l-246-119.6c-11.6-5.6-16.8-20-10.8-31.6s19.6-16.8 31.6-10.8l217.2 105.6 91.2-636.4z" fill="#ffffff" p-id="3119"></path></svg>