<?xml version="1.0" standalone="no"?><!DOCTYPE svg PUBLIC "-//W3C//DTD SVG 1.1//EN" "http://www.w3.org/Graphics/SVG/1.1/DTD/svg11.dtd"><svg t="1577499936229" class="icon" viewBox="0 0 1024 1024" version="1.1" xmlns="http://www.w3.org/2000/svg" p-id="14198" xmlns:xlink="http://www.w3.org/1999/xlink" width="32" height="32"><defs><style type="text/css"></style></defs><path d="M422.1 509.6c65.7 0 118.9-53.2 118.9-118.9s-53.2-118.9-118.9-118.9S303.2 325 303.2 390.6s53.1 119 118.9 119z m-0.9-174.2c33 0 59.8 26.8 59.8 59.8S454.2 455 421.2 455s-59.8-26.8-59.8-59.8c-0.1-33 26.7-59.8 59.8-59.8zM705.6 586.1l-17.7-12.2c-8.3-5.8-19.9-3.7-25.8 4.6l-91.6 132V579.3c0-31.4-19.8-58.5-47.5-69.2-19.8 31.5-54.1 53-93.5 55.1h-12.8c-39.7-2.1-74.1-23.8-93.8-55.6-28.6 10.4-49.1 37.7-49.1 69.7v215.5c0 40.8 33.4 74.2 74.2 74.2h148.4c32.2 0 59.7-20.8 69.9-49.5l144-207.5c5.8-8.5 3.6-20-4.7-25.9z m-229.8 216H371.2c-20.5 0-37.1-16.6-37.1-37.1V595.9c24.8 19 55.8 30.4 89.4 30.4 33.7 0 64.7-11.4 89.5-30.4v169.2c-0.1 20.5-16.7 37-37.2 37z" p-id="14199" fill="#ffffff"></path><path d="M859.7 155.1H164.3c-20.4 0-37.1 16.7-37.1 37.1v579.4c0 20.4 16.7 37.1 37.1 37.1H213c0.8 0.1 1.5 0.1 2.3 0.1 16.6 0 30.1-13.5 30.1-30.1s-13.5-30.1-30.1-30.1v-0.1c-16.4-3.8-28.7-18.6-28.7-36.1V252.5c0-20.4 16.7-37.1 37.1-37.1h578.6c20.4 0 37.1 16.7 37.1 37.1v459.8c0 20.4-16.7 37.1-37.1 37.1h-51.1 0.4-1.3c-16.4 0-29.7 13.3-29.7 29.8 0 16.4 13.3 29.8 29.7 29.8 4.6 0 8.9-1 12.8-2.9-2.2 1.2-4.6 2.1-7.1 2.7h103.7c20.4 0 37.1-16.7 37.1-37.1V192.2c-0.1-20.4-16.7-37.1-37.1-37.1z" p-id="14200" fill="#ffffff"></path><path d="M661.3 393.6h136.5c6.1 0 11.1-5 11.1-11.1v-37.1c0-6.1-5-11.1-11.1-11.1H661.3c-6.1 0-11.1 5-11.1 11.1v37.1c-0.1 6.1 5 11.1 11.1 11.1zM650.1 501.4c0 6.1 5 11.1 11.1 11.1h136.5c6.1 0 11.1-5 11.1-11.1v-37.1c0-6.1-5-11.1-11.1-11.1H661.3c-6.1 0-11.1 5-11.1 11.1v37.1z" p-id="14201" fill="#ffffff"></path></svg>