<?xml version="1.0" standalone="no"?><!DOCTYPE svg PUBLIC "-//W3C//DTD SVG 1.1//EN" "http://www.w3.org/Graphics/SVG/1.1/DTD/svg11.dtd"><svg t="1567759092373" class="icon" viewBox="0 0 1182 1024" version="1.1" xmlns="http://www.w3.org/2000/svg" p-id="2722" width="36.9375" height="32" xmlns:xlink="http://www.w3.org/1999/xlink"><defs><style type="text/css"></style></defs><path d="M693.667943 256.888212a33.049731 33.049731 0 1 0 33.04973 33.04973 33.049731 33.049731 0 0 0-33.04973-33.04973z" p-id="2723" fill="#ffffff"></path><path d="M886.834438 0H295.611479L0 512.00459l295.611479 511.99541h591.222959l295.611479-511.99541z m-45.06698 577.452237a58.663272 58.663272 0 0 1-50.143786-89.114926L715.994872 371.166836a83.955496 83.955496 0 0 1-26.623394 2.919392L532.467882 688.095391a75.279942 75.279942 0 1 1-114.076654 5.857147l-74.270089-116.904242a58.654091 58.654091 0 1 1 51.998243-58.268511 58.415399 58.415399 0 0 1-8.703096 30.800513L461.622112 666.5029a75.518634 75.518634 0 0 1 16.313714-1.836096 74.508782 74.508782 0 0 1 8.693916 0.514107l154.571753-309.3822a84.276813 84.276813 0 1 1 117.712124-12.613981l75.775688 117.381627a59.920998 59.920998 0 0 1 7.078151-0.440663 58.663272 58.663272 0 0 1 0 117.317363z" p-id="2724" fill="#ffffff"></path></svg>