<?xml version="1.0" standalone="no"?><!DOCTYPE svg PUBLIC "-//W3C//DTD SVG 1.1//EN" "http://www.w3.org/Graphics/SVG/1.1/DTD/svg11.dtd"><svg t="1561446245571" class="icon" viewBox="0 0 1024 1024" version="1.1" xmlns="http://www.w3.org/2000/svg" p-id="3355" xmlns:xlink="http://www.w3.org/1999/xlink" width="200" height="200"><defs><style type="text/css"></style></defs><path d="M512 716.8m-12.8 0a12.8 12.8 0 1 0 25.6 0 12.8 12.8 0 1 0-25.6 0Z" p-id="3356"></path><path d="M288 416h256V448h-256z" p-id="3357"></path><path d="M288 480h256V512h-256z" p-id="3358"></path><path d="M288 544h256V576h-256z" p-id="3359"></path><path d="M569.6 416h166.4v166.4H569.6z" p-id="3360"></path><path d="M288 256h448v128h-448z" p-id="3361"></path><path d="M832 128H192c-32 0-64 32-64 64v512c0 38.4 32 64 64 64h256l-57.6 108.8c-6.4 6.4 0 19.2 12.8 19.2h211.2c12.8 0 12.8-12.8 12.8-19.2L576 768h256c38.4 0 64-32 64-64V192c0-32-32-64-64-64z m-339.2 588.8c0-6.4 6.4-12.8 12.8-12.8s12.8 6.4 12.8 12.8 0 12.8-6.4 12.8-19.2-6.4-19.2-12.8z m371.2-108.8c0 38.4-25.6 64-64 64h-576c-38.4 0-64-25.6-64-64v-384c0-38.4 25.6-64 64-64h576c38.4 0 64 25.6 64 64v384z" p-id="3362"></path></svg>