<?xml version="1.0" standalone="no"?><!DOCTYPE svg PUBLIC "-//W3C//DTD SVG 1.1//EN" "http://www.w3.org/Graphics/SVG/1.1/DTD/svg11.dtd"><svg t="1565851213016" class="icon" viewBox="0 0 1117 1024" version="1.1" xmlns="http://www.w3.org/2000/svg" p-id="888" width="34.90625" height="32" xmlns:xlink="http://www.w3.org/1999/xlink"><defs><style type="text/css"></style></defs><path d="M1012.364 211.782c-37.237-93.091-107.055-148.946-204.8-162.91-48.873-6.981-95.419 0-137.31 27.928-39.563 25.6-76.8 55.855-111.709 88.436-32.581 27.928-62.836 58.182-93.09 88.437-9.31 9.309-18.619 11.636-30.255 2.327-2.327-2.327-4.655-2.327-4.655-4.655-34.909-25.6-69.818-51.2-107.054-69.818-9.31-4.654-18.618-6.982-27.927-6.982-48.873-2.327-95.419 9.31-134.982 37.237-51.2 34.909-74.473 86.109-65.164 148.945 6.982 39.564 25.6 74.473 48.873 104.728 32.582 39.563 65.164 79.127 100.073 116.363 58.181 65.164 118.69 132.655 179.2 197.818l18.618 18.619C477.09 761.018 512 726.109 549.236 688.873c-2.327 0-4.654-2.328-6.981-2.328-23.273-4.654-46.546-11.636-69.819-23.272-34.909-16.291-65.163-41.891-90.763-67.491-25.6-25.6-48.873-53.527-62.837-86.11-6.981-20.945-13.963-44.217-18.618-67.49-6.982-32.582-25.6-58.182-55.854-72.146-11.637-6.981-25.6-11.636-37.237-16.29-9.309-4.655-9.309-6.982-4.654-16.291 2.327-4.655 6.982-9.31 9.309-13.964 11.636-13.964 25.6-25.6 41.89-27.927 30.255-4.655 60.51 0 86.11 18.618 16.29 11.636 32.582 27.927 48.873 39.563 13.963 11.637 27.927 20.946 44.218 25.6 18.618 4.655 37.236 0 53.527-6.981 34.91-16.291 62.836-39.564 88.436-65.164 34.91-34.91 67.491-69.818 100.073-104.727 13.964-13.964 27.927-27.928 46.546-37.237 16.29-6.981 34.909-11.636 53.527-6.981 13.963 4.654 13.963 6.981 4.654 16.29-27.927 32.582-58.181 62.837-86.109 95.419-13.963 16.29-30.254 30.254-46.545 46.545-2.327 2.327-4.655 4.655-2.327 6.982 0 0 4.654 0 6.981-2.327l2.328-2.328 55.854-55.854c25.6-25.6 53.527-51.2 79.127-76.8 23.273-20.946 53.528-13.964 72.146 0 4.654 2.327 4.654 4.654 0 9.309-39.564 44.218-81.455 88.436-121.018 134.982-11.637 11.636-20.946 23.272-32.582 34.909-2.327 2.327 0 4.654-2.327 6.982h6.981c2.328 0 2.328-2.328 4.655-4.655 11.636-13.964 23.273-25.6 34.91-39.564 27.926-27.927 53.526-58.181 81.454-86.109 4.654-4.654 9.309-9.309 16.29-11.636 18.619-6.982 39.564-4.655 55.855 4.655 6.982 4.654 6.982 6.981 2.327 13.963-18.618 20.946-34.909 39.564-53.527 60.51-23.273 25.6-46.545 53.527-72.145 79.127l-27.928 27.927s-2.327 2.327-2.327 4.654c2.327 0 4.655 2.328 4.655 2.328 2.327 0 4.654-2.328 6.981-4.655 11.637-11.636 20.946-23.273 32.582-34.909 16.291-16.29 32.582-34.91 51.2-51.2 20.946-18.618 55.855-13.964 74.473 0 4.655 2.327 4.655 4.655 0 9.31-6.982 6.98-13.964 16.29-23.273 23.272-55.854 55.854-111.709 114.036-167.563 169.89-53.528 53.528-104.728 107.055-158.255 160.583-37.236 37.236-74.473 76.8-111.709 114.036-4.655 4.654-4.655 6.982 0 11.636 4.655 6.982 11.636 13.964 16.29 18.618 13.965 16.291 30.255 30.255 44.22 46.546 4.654 4.654 6.98 4.654 11.635 0 2.328-4.655 6.982-6.982 11.637-11.636C588.8 830.836 630.69 786.618 674.909 742.4c34.91-37.236 72.146-72.145 107.055-109.382l123.345-123.345c16.291-16.291 34.91-32.582 48.873-51.2 30.254-39.564 51.2-83.782 60.509-134.982 11.636-39.564 11.636-76.8-2.327-111.71z" p-id="889" fill="#ffffff"></path></svg>