<?xml version="1.0" encoding="utf-8"?>
<!-- Generator: Adobe Illustrator 22.0.0, SVG Export Plug-In . SVG Version: 6.00 Build 0)  -->
<svg version="1.1" id="图层_1" xmlns="http://www.w3.org/2000/svg" xmlns:xlink="http://www.w3.org/1999/xlink" x="0px" y="0px"
	 viewBox="0 0 32 32" style="enable-background:new 0 0 32 32;" xml:space="preserve">
<path d="M27.9,29.1c-0.3,0-0.7-0.1-0.9-0.4l-4.9-4.9l-0.6,0.4c-2,1.4-4.4,2.2-6.9,2.2c-3.1,0-6.1-1.2-8.3-3.5
	c-2.2-2.2-3.5-5.2-3.5-8.4s1.2-6.1,3.5-8.4c2.2-2.2,5.2-3.5,8.4-3.5s6.1,1.2,8.4,3.5c4.1,4.1,4.6,10.5,1.3,15.2l-0.4,0.6l4.9,4.9
	c0.2,0.2,0.4,0.6,0.4,0.9c0,0.3-0.1,0.7-0.4,0.9C28.5,29,28.2,29.1,27.9,29.1z M14.7,5.4c-2.5,0-4.8,1-6.6,2.7
	c-1.8,1.8-2.7,4.1-2.7,6.6s1,4.8,2.7,6.6C9.9,23,12.2,24,14.7,24c2.5,0,4.8-1,6.6-2.7c1.8-1.8,2.7-4.1,2.7-6.6s-1-4.8-2.7-6.6
	C19.5,6.4,17.2,5.4,14.7,5.4z"/>
</svg>
