<?xml version="1.0" standalone="no"?><!DOCTYPE svg PUBLIC "-//W3C//DTD SVG 1.1//EN" "http://www.w3.org/Graphics/SVG/1.1/DTD/svg11.dtd"><svg t="1577499960214" class="icon" viewBox="0 0 1024 1024" version="1.1" xmlns="http://www.w3.org/2000/svg" p-id="15016" xmlns:xlink="http://www.w3.org/1999/xlink" width="32" height="32"><defs><style type="text/css"></style></defs><path d="M99.6864 168.1408c7.9872 2.0992 22.4256-7.8848 22.4256-15.8208v527.36a45.2608 45.2608 0 0 0 21.9136 30.72l366.4896 145.8688a18.6368 18.6368 0 0 0-7.7824-0.256l9.2672-0.9216 9.2672 1.1264a18.6368 18.6368 0 0 0-7.7824 0.256l366.4896-145.8688a45.2608 45.2608 0 0 0 21.9136-30.72v-527.36c0 7.936 14.4384 17.92 22.4256 15.8208L531.456 272.5888l-19.456 5.12-19.456-5.12z m19.456-63.2832L512 209.0496l392.8576-104.2432A49.9712 49.9712 0 0 1 972.8 152.32v527.36a108.4928 108.4928 0 0 1-64.8704 91.3408l-366.4896 145.8688a98.8672 98.8672 0 0 1-58.88 0l-366.4896-145.8688A108.4928 108.4928 0 0 1 51.2 679.5776v-527.36a49.9712 49.9712 0 0 1 67.9424-47.5136z m180.1728 442.7776l-83.3536 40.704 15.9232-86.1696-67.4304-61.0304 93.184-12.5952 41.6768-78.3872 41.6768 78.3872 93.184 12.5952-67.4304 61.0304 15.9232 86.1696-83.3536-40.704z m330.3424-100.096l211.712-66.2016a32.4096 32.4096 0 0 0 22.272-41.6768 36.1472 36.1472 0 0 0-44.9024-20.48l-211.712 66.2016a32.4096 32.4096 0 0 0-22.272 41.6768 36.1472 36.1472 0 0 0 44.9024 20.48z m0 131.6864l211.712-66.2016a32.4096 32.4096 0 0 0 22.272-41.6768 36.1472 36.1472 0 0 0-44.9024-20.48l-211.712 66.2016a32.4096 32.4096 0 0 0-22.272 41.6768 36.1472 36.1472 0 0 0 44.9024 20.48z m0 131.6864l211.712-66.2016a32.4096 32.4096 0 0 0 22.272-41.6768 36.1472 36.1472 0 0 0-44.9024-20.48l-211.712 66.2016a32.4096 32.4096 0 0 0-22.272 41.6768 36.1472 36.1472 0 0 0 44.9024 20.48z" p-id="15017" fill="#ffffff"></path></svg>