<?xml version="1.0" standalone="no"?><!DOCTYPE svg PUBLIC "-//W3C//DTD SVG 1.1//EN" "http://www.w3.org/Graphics/SVG/1.1/DTD/svg11.dtd"><svg t="1577500021454" class="icon" viewBox="0 0 1024 1024" version="1.1" xmlns="http://www.w3.org/2000/svg" p-id="17440" xmlns:xlink="http://www.w3.org/1999/xlink" width="32" height="32"><defs><style type="text/css"></style></defs><path d="M836.901 63.756H187.635c-35.338 0-64.1 28.749-64.1 64.1v766.14c0 35.352 28.762 64.1 64.1 64.1h649.266c35.339 0 64.1-28.748 64.1-64.1v-766.14c0-35.351-28.761-64.1-64.1-64.1z m7.516 830.24a7.522 7.522 0 0 1-7.516 7.516H187.635a7.522 7.522 0 0 1-7.515-7.516v-766.14a7.522 7.522 0 0 1 7.515-7.515h649.266a7.522 7.522 0 0 1 7.516 7.516v766.14z" p-id="17441" fill="#ffffff"></path><path d="M510.652 563.588c0-15.624-12.655-28.293-28.293-28.293H320.892c-15.638 0-28.293 12.669-28.293 28.293s12.654 28.293 28.293 28.293h161.467c15.638 0 28.293-12.668 28.293-28.293z m-189.76-124.774h382.752c15.637 0 28.293-12.669 28.293-28.293s-12.654-28.293-28.293-28.293H320.892c-15.638 0-28.293 12.668-28.293 28.293 0 15.624 12.655 28.293 28.293 28.293z m0-147.474h382.752c15.637 0 28.293-12.668 28.293-28.293s-12.654-28.293-28.293-28.293H320.892c-15.638 0-28.293 12.669-28.293 28.293 0 15.626 12.655 28.293 28.293 28.293zM804.658 576.34l-116.072 28.348-89.16-79.531-8.87 119.138-103.196 60.219 110.546 45.257 25.364 116.748 77.224-91.15 118.89 11.936-62.83-101.607 48.104-109.358zM676.567 716.103l-22.352 26.36-7.35-33.778-31.968-13.096 29.868-17.42 2.57-34.454 25.778 23.001 33.57-8.206-13.897 31.636 18.18 29.41-34.399-3.453z" p-id="17442" fill="#ffffff"></path></svg>