<?xml version="1.0" standalone="no"?><!DOCTYPE svg PUBLIC "-//W3C//DTD SVG 1.1//EN" "http://www.w3.org/Graphics/SVG/1.1/DTD/svg11.dtd"><svg t="1577499581895" class="icon" viewBox="0 0 1024 1024" version="1.1" xmlns="http://www.w3.org/2000/svg" p-id="8492" xmlns:xlink="http://www.w3.org/1999/xlink" width="32" height="32"><defs><style type="text/css"></style></defs><path d="M42.029851 384.927932a24.017058 24.017058 0 0 1-13.536887-43.667378L511.890832 13.100213l483.397867 327.505331a24.017058 24.017058 0 0 1-13.536887 43.667377z m-7.205118-21.833689h954.132197L511.890832 39.518977z" p-id="8493" fill="#ffffff"></path><path d="M130.892964 283.837953l-72.706184 50.217484-23.79872 15.283582 96.286567-65.501066m767.454158 4.803412L989.175267 349.339019l-23.798721-16.156929L898.128785 288.641365M511.890832 0L22.379531 331.872068a34.933902 34.933902 0 0 0 19.65032 63.754371h938.848614a34.933902 34.933902 0 0 0 19.65032-63.754371L511.890832 0zM70.413646 352.177399L511.890832 52.837527l441.477185 299.339872z" p-id="8494" fill="#ffffff"></path><path d="M159.276759 400.211514h21.833689v432.307036h-21.833689z" p-id="8495" fill="#ffffff"></path><path d="M192.027292 389.29467h-43.667377v454.140724h43.667377v-454.140724z" p-id="8496" fill="#ffffff"></path><path d="M387.002132 400.211514h21.833689v432.307036h-21.833689z" p-id="8497" fill="#ffffff"></path><path d="M419.752665 389.29467h-43.667377v454.140724h43.667377v-454.140724z" p-id="8498" fill="#ffffff"></path><path d="M614.945842 400.211514h21.833689v432.307036h-21.833689z" p-id="8499" fill="#ffffff"></path><path d="M647.696375 389.29467h-43.667377v454.140724h43.667377v-454.140724z" p-id="8500" fill="#ffffff"></path><path d="M842.889552 400.211514h21.833689v432.307036h-21.833689z" p-id="8501" fill="#ffffff"></path><path d="M876.295096 389.29467h-43.667377v454.140724h43.667377v-454.140724z" p-id="8502" fill="#ffffff"></path><path d="M13.864392 1013.083156v-163.752666h996.271216v163.752666z m20.086994-21.833689H989.830277v-120.085288H33.951386z" p-id="8503" fill="#ffffff"></path><path d="M1021.052452 838.413646H2.947548v185.586354h1018.104904v-185.586354zM44.86823 980.332623v-98.2516H978.913433v98.2516z" p-id="8504" fill="#ffffff"></path></svg>