<?xml version="1.0" standalone="no"?><!DOCTYPE svg PUBLIC "-//W3C//DTD SVG 1.1//EN" "http://www.w3.org/Graphics/SVG/1.1/DTD/svg11.dtd"><svg t="1562665001144" class="icon" viewBox="0 0 1026 1024" version="1.1" xmlns="http://www.w3.org/2000/svg" p-id="3905" xmlns:xlink="http://www.w3.org/1999/xlink" width="128.25" height="128"><defs><style type="text/css"></style></defs><path d="M459.668354 383.056962C695.886814 383.056962 893.799577 293.677004 893.799577 191.528481c0-108.532806-191.528481-191.528481-434.131223-191.528481S25.537131 89.379958 25.537131 191.528481c0 108.532806 191.528481 191.528481 434.131223 191.528481z m0 204.297046h19.152848c38.305696-89.379958 127.685654-146.838502 236.21846-146.838502 51.074262 0 95.76424 12.768565 140.454219 38.305696 25.537131-25.537131 44.689979-51.074262 44.689979-82.995675V242.602742c0 108.532806-191.528481 191.528481-434.131223 191.528481-236.21846 0-434.131223-89.379958-434.131224-191.528481v146.838502C25.537131 497.97405 217.065612 587.354008 459.668354 587.354008z m0 197.912763h12.768565c-12.768565-25.537131-19.152848-57.458544-19.152848-89.379957 0-19.152848 0-38.305696 6.384283-57.458545C223.449894 638.428269 25.537131 549.048312 25.537131 446.899789v146.838502c0 108.532806 191.528481 191.528481 434.131223 191.52848z m178.759915 153.222785c-57.458544-19.152848-108.532806-51.074262-140.454219-102.148523h-38.305696c-236.21846 0-434.131223-89.379958-434.131223-191.528481v146.838502c0 108.532806 191.528481 191.528481 434.131223 191.528481 63.842827 0 127.685654-6.384283 185.144198-19.152848-6.384283-6.384283-6.384283-12.768565-6.384283-25.537131 0 6.384283 0 6.384283 0 0z m376.672679 6.384283l-134.069936-134.069937-6.384283-6.384283c19.152848-31.921413 31.921413-70.22711 31.921414-114.917088 0-114.917088-95.76424-210.681329-210.681329-210.681329-114.917088 0-210.681329 95.76424-210.681329 210.681329 0 114.917088 95.76424 210.681329 210.681329 210.681329 38.305696 0 70.22711-12.768565 102.148523-25.537131 0 0 0 6.384283 6.384282 6.384283l134.069937 134.069936c12.768565 12.768565 44.689979 12.768565 63.842827-6.384282 25.537131-25.537131 25.537131-51.074262 12.768565-63.842827z m-466.052636-255.371308c0-82.995675 70.22711-153.222785 153.222784-153.222785s153.222785 70.22711 153.222785 153.222785-70.22711 153.222785-153.222785 153.222785c-89.379958 0-153.222785-70.22711-153.222784-153.222785z"  p-id="3906"></path></svg>