<?xml version="1.0" standalone="no"?><!DOCTYPE svg PUBLIC "-//W3C//DTD SVG 1.1//EN" "http://www.w3.org/Graphics/SVG/1.1/DTD/svg11.dtd"><svg t="1577499981258" class="icon" viewBox="0 0 1024 1024" version="1.1" xmlns="http://www.w3.org/2000/svg" p-id="15972" xmlns:xlink="http://www.w3.org/1999/xlink" width="32" height="32"><defs><style type="text/css"></style></defs><path d="M584.844549 646.284549c-2.007843 4.055843-2.69051 8.774275-2.69051 12.830118 0 8.091608 3.373176 16.183216 9.436863 22.26698l62.745098 62.745098c22.929569 22.949647 62.72502 22.949647 85.654588 0l206.406275-206.46651c23.632314-23.612235 23.632314-62.08251 0-86.377411l-62.72502-62.745099a31.462902 31.462902 0 0 0-37.084863-5.401098L580.808784 117.298196a28.912941 28.912941 0 0 0 4.035765-14.858039c0-8.774275-3.373176-16.203294-9.436863-22.287059L512.682667 17.428078c-22.949647-22.929569-62.745098-22.929569-85.674667 0L219.919059 223.894588a60.697098 60.697098 0 0 0 0 85.694745l62.725019 62.745098c8.774275 9.436863 23.612235 11.484863 35.07702 6.083765l75.555137 75.575216L24.294902 823.075137a45.457569 45.457569 0 0 0-13.492706 32.38651c0 12.147451 4.718431 23.632314 13.492706 32.38651l62.062431 62.08251a45.417412 45.417412 0 0 0 32.38651 13.492706c12.127373 0 23.612235-4.718431 32.366432-13.492706L520.091608 580.86902l64.752941 65.455686z m-218.553725-312.420392l169.321411-169.34149 263.750275 263.830588-169.321412 169.361569-109.266823-109.989648-384.501961 385.305099c-8.774275 8.754196-24.95749 8.754196-33.731765 0a22.387451 22.387451 0 0 1-6.746353-16.885961c0-6.083765 2.710588-12.147451 6.746353-16.865883l377.072941-377.193411 8.111686-8.091608-121.434352-120.109177z m300.855215 325.933176c0-2.710588 0.682667-4.73851 2.69051-6.766431l186.187294-186.227451c2.007843-2.007843 4.035765-2.69051 6.746353-2.69051 2.69051 0 4.718431 0.662588 6.746353 2.69051l20.901647 20.921725c2.027922 2.007843 2.710588 4.055843 2.710588 6.746353a8.673882 8.673882 0 0 1-2.710588 6.746353l-186.167216 186.227451a9.376627 9.376627 0 0 1-12.830117 0l-20.901647-20.901647a7.469176 7.469176 0 0 1-3.373177-6.746353zM501.197804 102.4a8.673882 8.673882 0 0 1-2.69051 6.766431l-186.849882 186.227451a9.376627 9.376627 0 0 1-12.810039 0l-21.584314-21.584313a9.396706 9.396706 0 0 1 0-12.830118l186.167216-186.227451c2.007843-2.007843 4.055843-2.69051 6.746352-2.69051s4.718431 0.662588 6.746353 2.69051l21.584314 21.584314a8.553412 8.553412 0 0 1 2.69051 6.083764z m381.811451 757.76H526.837961a129.566118 129.566118 0 0 0-129.505883 129.566118v33.069176h615.865726v-33.069176c0-71.519373-58.026667-129.546039-130.188549-129.54604zM472.847059 956.697098a63.728941 63.728941 0 0 1 54.65349-31.041255h355.488627c22.929569 0 43.168627 12.147451 54.633412 31.041255H472.867137z" fill="#ffffff" p-id="15973"></path></svg>