<?xml version="1.0" standalone="no"?><!DOCTYPE svg PUBLIC "-//W3C//DTD SVG 1.1//EN" "http://www.w3.org/Graphics/SVG/1.1/DTD/svg11.dtd"><svg t="1577509701380" class="icon" viewBox="0 0 1243 1024" version="1.1" xmlns="http://www.w3.org/2000/svg" p-id="3372" xmlns:xlink="http://www.w3.org/1999/xlink" width="242.7734375" height="200"><defs><style type="text/css"></style></defs><path d="M834.186 482.163h-142.48c-20.334 0-33.866-13.604-33.866-30.573 0-16.97 16.97-30.574 33.865-30.574h142.48c20.334 0 33.866 13.605 33.866 30.574s-13.532 30.573-33.865 30.573M349.254 271.66h-138.97c-20.407 0-33.938-13.604-33.938-30.573 0-16.97 16.969-30.574 33.864-30.574h142.408c20.407 0 33.938 13.605 33.938 30.574s-16.969 30.573-37.302 30.573m0 210.503h-138.97c-20.407 0-33.938-13.604-33.938-30.573 0-16.97 16.969-30.574 33.864-30.574h142.408c20.407 0 33.938 13.605 33.938 30.574s-16.969 30.573-37.302 30.573m0 207.139h-138.97c-20.407 0-33.938-13.605-33.938-30.574s16.969-30.573 33.864-30.573h142.408c20.407 0 33.938 13.604 33.938 30.573 0 16.97-16.969 30.574-37.302 30.574m461.16-475.424h-210.21v607.81c0 20.408-16.969 37.377-33.938 37.377s-33.864-16.97-33.864-37.303V142.637A143.359 143.359 0 0 0 389.848 0.01h-216.94c-77.97 0-138.97 64.512-138.97 142.627v716.428C13.53 859.065 0 876.033 0 896.367c0 20.48 16.969 37.376 33.938 37.376h647.6c-23.698-47.543-37.302-95.085-37.302-149.357A304.125 304.125 0 0 1 949.458 478.8V356.505c0-78.043-61.074-142.627-138.97-142.627" p-id="3373" fill="#ffffff"></path><path d="M1079.505 714.901L950.043 901.414c-6.875 6.802-13.678 13.531-23.917 13.531a31.012 31.012 0 0 1-23.845-10.167l-75.117-74.605c-6.802-6.729-6.802-23.698 0-30.5l17.116-16.896c6.802-6.802 23.844-6.802 30.646 0l40.96 40.667 98.815-145.772c6.802-10.24 23.844-10.24 30.72-6.802l23.844 13.531c3.437 3.438 6.802 6.802 10.24 13.605 3.364 3.364 3.364 13.53 0 16.895M949.97 545.431a236.542 236.542 0 0 0-238.59 237.346 236.542 236.542 0 0 0 238.59 237.273 236.542 236.542 0 0 0 238.663-237.273c-3.365-132.24-109.055-237.42-238.59-237.42" p-id="3374" fill="#ffffff"></path></svg>