<?xml version="1.0" standalone="no"?><!DOCTYPE svg PUBLIC "-//W3C//DTD SVG 1.1//EN" "http://www.w3.org/Graphics/SVG/1.1/DTD/svg11.dtd"><svg t="1565851724036" class="icon" viewBox="0 0 1024 1024" version="1.1" xmlns="http://www.w3.org/2000/svg" p-id="2905" width="32" height="32" xmlns:xlink="http://www.w3.org/1999/xlink"><defs><style type="text/css"></style></defs><path d="M178.996224 249.101312l44.223488 34.026496-20.66432 62.066688c-1.056768 3.173376 0.062464 6.665216 2.7648 8.634368s6.36928 1.963008 9.065472-0.016384l51.470336-37.774336 51.470336 37.774336c1.35168 0.992256 2.948096 1.488896 4.544512 1.488896 1.5872 0 3.1744-0.490496 4.521984-1.472512 2.70336-1.969152 3.820544-5.460992 2.7648-8.633344l-20.66432-62.067712 44.222464-34.026496c2.60608-2.004992 3.646464-5.44768 2.586624-8.56064s-3.982336-5.206016-7.2704-5.206016l-54.444032 0-20.540416-54.781952c-1.124352-2.997248-3.989504-4.983808-7.191552-4.983808s-6.0672 1.985536-7.190528 4.983808l-20.54144 54.781952-54.443008 0c-3.288064 0-6.211584 2.093056-7.2704 5.206016S176.390144 247.09632 178.996224 249.101312z" p-id="2906" fill="#ffffff"></path><path d="M178.996224 742.158336l44.223488 34.025472-20.66432 62.047232c-1.056768 3.172352 0.06144 6.664192 2.763776 8.633344 2.702336 1.969152 6.368256 1.963008 9.065472-0.014336l51.47136-37.75488 51.472384 37.75488c1.35168 0.991232 2.947072 1.487872 4.542464 1.487872 1.5872 0 3.175424-0.490496 4.523008-1.472512 2.702336-1.969152 3.81952-5.460992 2.763776-8.633344l-20.663296-62.047232 44.222464-34.025472c2.60608-2.004992 3.646464-5.446656 2.586624-8.56064-1.058816-3.11296-3.982336-5.206016-7.2704-5.206016l-54.444032 0-20.54144-54.76352c-1.124352-2.997248-3.989504-4.982784-7.190528-4.982784s-6.066176 1.985536-7.190528 4.982784l-20.54144 54.76352-54.444032 0c-3.288064 0-6.211584 2.093056-7.2704 5.20704C175.350784 736.71168 176.390144 740.153344 178.996224 742.158336z" p-id="2907" fill="#ffffff"></path><path d="M882.177024 52.304896 142.592 52.304896c-49.547264 0-89.857024 40.317952-89.857024 89.875456L52.734976 881.74592c0 49.547264 40.30976 89.856 89.857024 89.856l739.584 0c49.547264 0 89.856-40.30976 89.856-89.856L972.032 142.180352C972.033024 92.622848 931.724288 52.304896 882.177024 52.304896zM109.182976 142.180352c0-18.432 14.987264-33.427456 33.409024-33.427456l739.584 0c18.420736 0 33.408 14.995456 33.408 33.427456L915.584 881.74592c0 18.420736-14.98624 33.408-33.408 33.408L142.592 915.15392c-18.42176 0-33.409024-14.98624-33.409024-33.408L109.182976 142.180352z" p-id="2908" fill="#ffffff"></path><path d="M178.996224 495.63136l44.223488 34.024448-20.66432 62.068736c-1.056768 3.173376 0.062464 6.664192 2.7648 8.633344 2.70336 1.969152 6.36928 1.961984 9.065472-0.016384l51.470336-37.774336 51.470336 37.774336c1.35168 0.992256 2.948096 1.488896 4.544512 1.488896 1.5872 0 3.1744-0.490496 4.521984-1.472512 2.70336-1.969152 3.820544-5.460992 2.7648-8.633344l-20.66432-62.068736 44.222464-34.025472c2.60608-2.004992 3.646464-5.446656 2.586624-8.559616s-3.982336-5.206016-7.2704-5.206016l-54.444032 0-20.540416-54.784c-1.124352-2.997248-3.989504-4.983808-7.191552-4.983808s-6.0672 1.985536-7.191552 4.983808l-20.54144 54.784-54.443008 0c-3.288064 0-6.211584 2.093056-7.2704 5.206016S176.390144 493.625344 178.996224 495.63136z" p-id="2909" fill="#ffffff"></path><path d="M450.752512 293.649408l369.792 0c15.562752 0 28.224512-12.66176 28.224512-28.224512 0-15.552512-12.66176-28.204032-28.224512-28.204032L450.752512 237.220864c-15.562752 0-28.224512 12.652544-28.224512 28.204032C422.528 280.987648 435.18976 293.649408 450.752512 293.649408z" p-id="2910" fill="#ffffff"></path><path d="M450.752512 540.178432l369.792 0c15.562752 0 28.224512-12.652544 28.224512-28.205056 0-15.562752-12.66176-28.224512-28.224512-28.224512L450.752512 483.748864c-15.562752 0-28.224512 12.66176-28.224512 28.224512C422.528 527.524864 435.18976 540.178432 450.752512 540.178432z" p-id="2911" fill="#ffffff"></path><path d="M450.752512 786.724864l369.792 0c15.562752 0 28.224512-12.660736 28.224512-28.223488 0-15.574016-12.66176-28.244992-28.224512-28.244992L450.752512 730.256384c-15.562752 0-28.224512 12.670976-28.224512 28.244992C422.528 774.064128 435.18976 786.724864 450.752512 786.724864z" p-id="2912" fill="#ffffff"></path></svg>