<?xml version="1.0" standalone="no"?><!DOCTYPE svg PUBLIC "-//W3C//DTD SVG 1.1//EN" "http://www.w3.org/Graphics/SVG/1.1/DTD/svg11.dtd"><svg t="1577509858809" class="icon" viewBox="0 0 1024 1024" version="1.1" xmlns="http://www.w3.org/2000/svg" p-id="5765" xmlns:xlink="http://www.w3.org/1999/xlink" width="200" height="200"><defs><style type="text/css"></style></defs><path d="M504.055172 90.394483A432.375172 432.375172 0 1 0 935.724138 522.769655 432.375172 432.375172 0 0 0 504.055172 90.394483z m0 834.736551a402.361379 402.361379 0 1 1 402.36138-402.361379A402.361379 402.361379 0 0 1 504.055172 925.131034z" fill="#ffffff" p-id="5766"></path><path d="M514.295172 620.755862l-26.65931-0.882759A175.492414 175.492414 0 0 1 406.068966 589.506207a141.241379 141.241379 0 0 1-52.965518-69.561379 303.845517 303.845517 0 0 1-8.827586-109.108966V377.82069a24.717241 24.717241 0 0 1 25.423448-24.717242 136.651034 136.651034 0 0 1 55.437242 13.417931 114.935172 114.935172 0 0 1 21.186207-35.310345c21.009655-23.834483 39.371034-35.310345 56.143448-35.310344a59.497931 59.497931 0 0 1 35.310345 14.124138 134.532414 134.532414 0 0 1 24.187586 24.011034 117.230345 117.230345 0 0 1 17.655172 33.544828 162.604138 162.604138 0 0 1 60.557242-14.477242 23.834483 23.834483 0 0 1 17.655172 7.062069 24.717241 24.717241 0 0 1 7.238621 17.655173v81.566896a173.373793 173.373793 0 0 1-6.532414 55.790345 158.896552 158.896552 0 0 1-142.653793 105.931035z m-24.893793-23.834483l24.893793 0.882759a135.591724 135.591724 0 0 0 121.291035-90.041379 156.424828 156.424828 0 0 0 5.296552-48.551725v-9.710344-13.24138-58.615172a1.942069 1.942069 0 0 0 0-1.235862 162.957241 162.957241 0 0 0-63.735173 17.655172l-12.888276 5.826207-3.001379-13.771034a93.395862 93.395862 0 0 0-17.655172-37.782069 70.62069 70.62069 0 0 0-40.96-29.307586c-5.473103 0-17.655172 3.531034-39.017931 27.542068a94.631724 94.631724 0 0 0-20.48 38.664828l-3.707587 13.594483-12.535172-6.355862a127.293793 127.293793 0 0 0-57.732414-17.655173 1.942069 1.942069 0 0 0-1.412414 1.765518v33.897931a287.955862 287.955862 0 0 0 6.708966 101.517241 134.708966 134.708966 0 0 0 114.935172 84.568276z m-37.782069 97.809655A11.475862 11.475862 0 0 1 441.37931 688.551724c-14.477241-25.423448-38.135172-58.262069-68.148965-70.62069a75.387586 75.387586 0 0 0-42.725517 0A43.608276 43.608276 0 0 0 300.137931 639.823448a11.475862 11.475862 0 1 1-21.009655-8.827586 64.264828 64.264828 0 0 1 46.256552-35.310345 97.986207 97.986207 0 0 1 56.673103 2.824828 128.176552 128.176552 0 0 1 47.13931 34.074483 254.234483 254.234483 0 0 1 32.662069 45.726896 11.475862 11.475862 0 0 1-9.886896 17.655173z m104.871724 0a11.475862 11.475862 0 0 1-9.886896-17.655172 253.704828 253.704828 0 0 1 32.662069-45.726896 128.353103 128.353103 0 0 1 47.13931-34.074483 97.986207 97.986207 0 0 1 56.673104-2.824828 64.264828 64.264828 0 0 1 46.256551 35.310345 11.475862 11.475862 0 1 1-21.009655 8.827586A43.608276 43.608276 0 0 0 677.605517 617.931034a75.387586 75.387586 0 0 0-42.902069 1.942069c-30.013793 11.652414-52.965517 44.491034-68.148965 70.62069a11.475862 11.475862 0 0 1-9.886897 5.826207z m-52.965517 19.244138a11.475862 11.475862 0 0 1-11.475862-11.475862v-93.21931a11.475862 11.475862 0 0 1 22.951724 0v93.21931a11.475862 11.475862 0 0 1-11.475862 11.475862z" fill="#ffffff" p-id="5767"></path></svg>