<?xml version="1.0" standalone="no"?><!DOCTYPE svg PUBLIC "-//W3C//DTD SVG 1.1//EN" "http://www.w3.org/Graphics/SVG/1.1/DTD/svg11.dtd"><svg t="1577499870746" class="icon" viewBox="0 0 1024 1024" version="1.1" xmlns="http://www.w3.org/2000/svg" p-id="12659" xmlns:xlink="http://www.w3.org/1999/xlink" width="32" height="32"><defs><style type="text/css"></style></defs><path d="M116.063 283.629c-64.101 94.823-87.125 208.379-64.646 319.718 46.254 229.735 273.638 378.44 506.813 331.472 168.121-33.821 298.195-161.683 336.173-322.105l39.781 66.009c7.9 14.032 25.647 18.938 39.646 10.967 13.999-7.971 18.868-25.75 10.898-39.714a17.447 17.447 0 0 0-0.749-1.294l-76.634-127.181c-8.277-13.757-26.159-18.253-39.92-9.945l-0.51 0.307c-4.121 1.396-7.97 3.644-11.138 6.709l-115.566 69.551c-13.726 8.243-18.188 26.124-9.943 39.851 0.032 0.068 0.032 0.068 0.067 0.102 8.276 13.727 26.124 18.223 39.919 9.946l0.032-0.035 67.984-40.939C806.151 736.762 693.174 848.309 546.75 877.77c-201.771 40.634-398.399-87.602-438.317-285.899-19.312-95.978 0.511-193.832 55.859-275.678 55.449-81.948 139.85-137.875 237.67-157.562 141.213-28.474 287.67 26.567 373.058 140.123 9.673 12.807 27.964 15.395 40.771 5.757 12.806-9.708 15.395-27.896 5.722-40.77-98.74-131.338-267.984-194.962-431.063-162.197-112.874 22.719-210.355 87.365-274.387 182.085z" p-id="12660" fill="#ffffff"></path><path d="M623.692 693.369h-14.919c-6.539 0-7.493-1.295-7.493-15.022v-111.75h52.76V411.968h-44.788c11.648-21.901 23.773-47.412 35.456-72.072l-57.392-17.779c-7.493 27.35-21.934 64.305-35.014 89.851H502.37l28.031-12.296c-7.05-21.423-25.237-53.372-42.507-77.077l-45.743 19.584c14.033 21.423 28.474 48.808 36.41 69.789h-48.535v154.629h42.983c-4.701 62.059-17.302 109.946-84.946 138.692 11.172 9.57 26.125 29.633 32.63 42.404 81.199-37.363 98.91-100.783 105.483-181.097h24.285v112.263c0 46.048 8.379 61.104 48.501 61.104h30.79c31.744 0 44.824-17.371 49.013-81.642-13.521-3.168-34.98-11.887-44.789-20.096-1.394 48.399-3.301 55.144-10.284 55.144z m-25.204-174.183H483.229v-59.739h115.259v59.739z" p-id="12661" fill="#ffffff"></path><path d="M423.965 567.96c-8.856-10.423-47.139-49.728-59.742-60.693v-6.744h56.029v-50.681h-56.029v-66.145c20.061-4.121 39.68-10.048 56.472-16.417l-30.79-43.801c-37.807 15.055-95.232 28.747-147.003 36.921 5.586 11.887 12.636 29.667 14.952 41.996 16.792-1.805 34.503-4.53 52.759-7.731v55.177h-68.631v50.681h58.345c-16.349 43.253-42.473 92.096-68.12 121.285 8.821 14.135 21.424 36.955 26.567 52.929 18.665-23.262 36.376-57.016 51.839-93.052v165.123h53.61V560.671c11.683 18.256 22.889 37.397 28.951 50.682l30.791-43.393z" p-id="12662" fill="#ffffff"></path></svg>