<?xml version="1.0" standalone="no"?><!DOCTYPE svg PUBLIC "-//W3C//DTD SVG 1.1//EN" "http://www.w3.org/Graphics/SVG/1.1/DTD/svg11.dtd"><svg t="1577509746040" class="icon" viewBox="0 0 1024 1024" version="1.1" xmlns="http://www.w3.org/2000/svg" p-id="4189" xmlns:xlink="http://www.w3.org/1999/xlink" width="200" height="200"><defs><style type="text/css"></style></defs><path d="M740.516881 738.521212l72.791919-15.127273c13.575758-4.266667 20.040404-11.377778 19.393939-21.333333-2.585859-12.412121-11.507071-17.066667-26.763636-13.963636l-72.791919 15.127272-7.757576-37.365656 72.791919-15.127273c13.575758-4.266667 20.040404-11.377778 19.39394-21.333333-2.585859-12.412121-11.507071-17.066667-26.763637-13.963637l-49.90707 10.343435 58.052525-148.686869c-0.258586-1.422222 0.129293-2.844444 1.163636-4.525252 2.456566-9.179798 3.361616-15.127273 2.844445-17.971718-3.749495-10.731313-11.248485-15.773737-22.626263-14.868686-11.119192 2.327273-18.359596 8.921212-21.979798 19.781818l-65.810101 163.167676-125.284848-123.60404c-7.49899-8.533333-16.937374-11.636364-27.927273-9.438384-10.860606 3.749495-15.773737 11.248485-14.868687 22.626263 2.456566 5.30101 5.688889 10.343434 9.69697 15.385858 1.680808 1.163636 2.715152 2.327273 2.973737 3.749495l112.355556 113.260606-49.907071 10.343435c-15.256566 3.10303-21.591919 10.989899-19.006061 23.40202 3.361616 9.438384 12.153535 13.446465 26.246465 11.894949l72.791919-15.127272 7.757576 37.365656-72.791919 15.127273c-15.256566 3.10303-21.591919 10.989899-19.006061 23.40202 3.361616 9.438384 12.153535 13.446465 26.246465 11.89495l72.791919-15.127273 28.444444 133.818182c2.844444 13.834343 11.894949 19.264646 27.151516 16.032323 15.256566-3.10303 21.462626-11.636364 18.488888-25.470707l-28.185858-133.688889z m0 0" p-id="4190" fill="#ffffff"></path><path d="M955.918901 421.494949c-11.765657-57.406061-34.262626-111.321212-66.973737-160.193939-32.581818-49.00202-73.69697-90.505051-122.181819-123.474747-50.165657-34.133333-106.020202-57.535354-165.882828-69.559596-59.991919-12.024242-120.50101-11.894949-179.846464 0.387878-57.406061 11.765657-111.321212 34.262626-160.19394 66.973738-49.00202 32.581818-90.505051 73.69697-123.474747 122.181818-34.133333 50.165657-57.535354 106.020202-69.559596 165.882828-12.024242 59.991919-11.894949 120.50101 0.387878 179.846465 11.765657 57.406061 34.262626 111.321212 66.973738 160.193939 32.581818 49.00202 73.69697 90.505051 122.181818 123.474748 50.165657 34.133333 106.020202 57.535354 165.882828 69.559596 59.991919 12.024242 120.50101 11.894949 179.846465-0.387879 34.00404-6.981818 66.844444-17.842424 98.133333-32.193939L687.248194 889.535354c-29.220202 13.575758-59.862626 23.789899-91.668687 30.254545-44.218182 9.050505-89.082828 10.860606-133.818182 5.30101L365.825972 433.131313l518.593939-105.373737c16.032323 32.064646 27.668687 65.939394 34.909091 101.365656 11.248485 54.561616 11.248485 110.028283 0.258586 165.107071-10.989899 55.078788-32.452525 106.278788-63.741414 152.307071-17.971717 26.375758-38.787879 50.424242-62.060606 71.886868l20.686868 31.418182c27.280808-24.436364 51.458586-51.975758 72.145455-82.488889 34.133333-50.165657 57.535354-106.020202 69.559596-165.882828 12.024242-59.991919 11.894949-120.50101-0.258586-179.975758zM166.068396 743.175758C136.072436 698.181818 115.385568 648.791919 104.654255 596.040404c-11.248485-54.561616-11.248485-110.028283-0.258586-165.107071 10.989899-55.078788 32.452525-106.278788 63.741414-152.30707 30.254545-44.476768 68.39596-82.10101 113.260606-112.09697 44.993939-29.99596 94.383838-50.682828 147.135353-61.414141 54.561616-11.248485 110.028283-11.248485 165.107071-0.258586 55.078788 10.989899 106.278788 32.452525 152.307071 63.741414 19.264646 13.058586 37.236364 27.668687 53.785858 43.571717L237.955265 327.886869c-10.084848 1.939394-16.678788 11.765657-14.610101 21.850505 0 0.258586 0.129293 0.387879 0.129293 0.517171 0 0.258586 0 0.387879 0.129292 0.646465l106.020203 535.40202c-17.713131-8.662626-34.909091-18.618182-51.329293-29.737373-44.606061-30.254545-82.230303-68.39596-112.226263-113.389899z m174.286869-342.884849c-10.084848 1.939394-16.678788 11.765657-14.610101 21.850505 0 0.258586 0.129293 0.387879 0.129293 0.517172 0 0.258586 0 0.387879 0.129292 0.646465l96.581819 495.321212c-17.713131-3.878788-35.038384-8.921212-51.975758-14.99798 0-1.163636-0.129293-2.327273-0.387879-3.490909l-106.795959-539.539394 566.044444-116.363637c10.084848 12.024242 19.652525 24.565657 28.444445 37.753536 2.585859 3.878788 5.042424 7.757576 7.49899 11.636363l-525.058586 106.666667z m0 0" p-id="4191" fill="#ffffff"></path></svg>