<?xml version="1.0" standalone="no"?><!DOCTYPE svg PUBLIC "-//W3C//DTD SVG 1.1//EN" "http://www.w3.org/Graphics/SVG/1.1/DTD/svg11.dtd"><svg t="1561886378287" class="icon" viewBox="0 0 1024 1024" version="1.1" xmlns="http://www.w3.org/2000/svg" p-id="9790" xmlns:xlink="http://www.w3.org/1999/xlink" width="200" height="200"><defs><style type="text/css"></style></defs><path d="M939.13787 912.109929h-742.633213a26.057306 26.057306 0 0 1-26.057306-26.057305V26.057306a26.057306 26.057306 0 0 1 26.057306-26.057306h742.633213a26.057306 26.057306 0 0 1 26.057305 26.057306v859.995318a26.057306 26.057306 0 0 1-26.057305 26.057305z m-716.575908-52.114611h690.518602V52.114611h-690.518602z" p-id="9791"></path><path d="M836.459056 1023.986971H84.86213a26.057306 26.057306 0 0 1-26.057305-26.057305V191.182452a26.057306 26.057306 0 0 1 52.114611 0v780.689908h725.53962a26.057306 26.057306 0 0 1 0 52.114611zM613.486691 191.182452H288.92992a26.057306 26.057306 0 0 1 0-52.114611h324.556771a26.057306 26.057306 0 0 1 0 52.114611z" p-id="9792"></path><path d="M821.945137 482.920047H288.92992a26.057306 26.057306 0 0 1 0-52.114612h533.015217a26.057306 26.057306 0 0 1 0 52.114612zM821.945137 774.709756H288.92992a26.057306 26.057306 0 1 1 0-52.114611h533.015217a26.057306 26.057306 0 0 1 0 52.114611z" p-id="9793"></path></svg>