<?xml version="1.0" encoding="utf-8"?>
<!-- Generator: Adobe Illustrator 22.0.0, SVG Export Plug-In . SVG Version: 6.00 Build 0)  -->
<svg version="1.1" id="图层_1" xmlns="http://www.w3.org/2000/svg" xmlns:xlink="http://www.w3.org/1999/xlink" x="0px" y="0px"
	 viewBox="0 0 1207.6 824.9" style="enable-background:new 0 0 1207.6 824.9;" xml:space="preserve">
<style type="text/css">
	.st0{clip-path:url(#SVGID_2_);}
</style>
<g>
	<defs>
		<rect id="SVGID_1_" x="217.2" y="54.1" width="717.9" height="716.6"/>
	</defs>
	<clipPath id="SVGID_2_">
		<use xlink:href="#SVGID_1_"  style="overflow:visible;"/>
	</clipPath>
	<path class="st0" d="M934.6,459.2L620.9,192.3c-23.4-23.4-66.7-23.4-90.1,0L217.2,459.2V352.4l317-280.3
		c23.4-23.4,60.1-23.4,83.4,0l317,280.3V459.2z M844.5,459.2v266.9c0,36.7-36.7,43.4-73.4,43.4H664.3v-90.1
		c0-16.7-26.7-43.4-43.4-43.4h-90.1c-16.7,0-43.4,26.7-43.4,43.4v90.1H380.7c-36.7,0-73.4-10-73.4-43.4V459.2l266.9-223.6
		L844.5,459.2z M844.5,459.2"/>
</g>
</svg>
